<?xml version="1.0" encoding="utf-8"?>
<!DOCTYPE svg PUBLIC "-//W3C//DTD SVG 1.1//EN" "http://www.w3.org/Graphics/SVG/1.1/DTD/svg11.dtd">
<svg version="1.1" id="Layer_1" xmlns="http://www.w3.org/2000/svg" xmlns:xlink="http://www.w3.org/1999/xlink" x="0px" y="0px"
	 width="100px" height="100px" viewBox="0 0 100 100" style="enable-background:new 0 0 100 100;" xml:space="preserve">
<path style="fill:#019BD4;" d="M100,94c0,3.313-2.687,6-6,6H6c-3.313,0-6-2.687-6-6V6c0-3.313,2.687-6,6-6h88c3.313,0,6,2.687,6,6
	V94z"/>
<g>
	<path style="fill:#FFFFFF;" d="M84,37c0,0-0.117,0.664-0.352,0.898l-12.5,12.5C70.914,50.633,69,53,69,53s0-3.161,0-3.5V42H15.25
		C14.911,42,14,42,14,42s0-0.911,0-1.25v-7.5c0-0.338,0-1.25,0-1.25s0.911,0,1.25,0H69v-7.5V24v-3l2.188,2.641l12.461,12.461
		C83.883,36.336,84,37,84,37z M84,58.25v7.5c0,0.339,0,1.25,0,1.25s-0.912,0-1.25,0H29v7.5c0,0.338,0,3.5,0,3.5l-2.188-2.641
		l-12.461-12.5C14.117,62.625,14,62.339,14,62c0-0.364,0.117-0.664,0.352-0.898l12.5-12.5C27.086,48.367,29,46,29,46v2
		c0,0,0,1.162,0,1.5V57h53.75c0.395,0,1.556,0.21,1.25,0C84,57,84,57.912,84,58.25z"/>
</g>
</svg>
