<?xml version="1.0" encoding="utf-8"?>
<!-- Generator: Adobe Illustrator 18.1.0, SVG Export Plug-In . SVG Version: 6.00 Build 0)  -->
<!DOCTYPE svg PUBLIC "-//W3C//DTD SVG 1.1//EN" "http://www.w3.org/Graphics/SVG/1.1/DTD/svg11.dtd">
<svg version="1.1" id="Layer_1" xmlns="http://www.w3.org/2000/svg" xmlns:xlink="http://www.w3.org/1999/xlink" x="0px" y="0px"
	 viewBox="0 0 55 55" enable-background="new 0 0 55 55" xml:space="preserve">
<circle fill="#2DA4A8" cx="27.5" cy="27.5" r="25.9"/>
<path fill="#E96044" d="M42.9,22h-30c-0.6,0-1-0.5-1-1v0c0-0.6,0.4-1,1-1h30c0.5,0,1,0.4,1,1v0C43.9,21.5,43.5,22,42.9,22z"/>
<path fill="#F2F2F2" d="M42.1,12.7v4.9c0,0.5-0.4,1-1,1H15.5c-0.5,0-1-0.4-1-1v-4.9c0-0.5,0.4-1,1-1h25.7
	C41.7,11.7,42.1,12.1,42.1,12.7z"/>
<path fill="#CCCCCC" d="M40.5,16.6V17c0,0.2-0.1,0.3-0.3,0.3H16.4c-0.2,0-0.3-0.1-0.3-0.3v-0.4c0-0.2,0.1-0.3,0.3-0.3h23.7
	C40.3,16.3,40.5,16.4,40.5,16.6z"/>
<path fill="#CCCCCC" d="M40.5,14.9v0.4c0,0.2-0.1,0.3-0.3,0.3H16.4c-0.2,0-0.3-0.1-0.3-0.3v-0.4c0-0.2,0.1-0.3,0.3-0.3h23.7
	C40.3,14.6,40.5,14.8,40.5,14.9z"/>
<path fill="#CCCCCC" d="M40.5,13.2v0.4c0,0.2-0.1,0.3-0.3,0.3H16.4c-0.2,0-0.3-0.1-0.3-0.3v-0.4c0-0.2,0.1-0.3,0.3-0.3h23.7
	C40.3,12.9,40.5,13.1,40.5,13.2z"/>
<path fill="#F2F2F2" d="M42.1,24v17.9c0,0.5-0.4,1-1,1H15.5c-0.5,0-1-0.4-1-1V24c0-0.5,0.4-1,1-1h25.7C41.7,23,42.1,23.4,42.1,24z"
	/>
<path fill="#CCCCCC" d="M40.5,27.9v0.4c0,0.2-0.1,0.3-0.3,0.3H16.4c-0.2,0-0.3-0.1-0.3-0.3v-0.4c0-0.2,0.1-0.3,0.3-0.3h23.7
	C40.3,27.6,40.5,27.7,40.5,27.9z"/>
<path fill="#CCCCCC" d="M40.5,26.2v0.4c0,0.2-0.1,0.3-0.3,0.3H16.4c-0.2,0-0.3-0.1-0.3-0.3v-0.4c0-0.2,0.1-0.3,0.3-0.3h23.7
	C40.3,25.9,40.5,26.1,40.5,26.2z"/>
<path fill="#CCCCCC" d="M40.5,24.5v0.4c0,0.2-0.1,0.3-0.3,0.3H16.4c-0.2,0-0.3-0.1-0.3-0.3v-0.4c0-0.2,0.1-0.3,0.3-0.3h23.7
	C40.3,24.2,40.5,24.4,40.5,24.5z"/>
<path fill="#CCCCCC" d="M40.5,33.2v0.4c0,0.2-0.1,0.3-0.3,0.3H16.5c-0.2,0-0.3-0.1-0.3-0.3v-0.4c0-0.2,0.1-0.3,0.3-0.3h23.7
	C40.4,32.9,40.5,33,40.5,33.2z"/>
<path fill="#CCCCCC" d="M40.5,31.5v0.4c0,0.2-0.1,0.3-0.3,0.3H16.5c-0.2,0-0.3-0.1-0.3-0.3v-0.4c0-0.2,0.1-0.3,0.3-0.3h23.7
	C40.4,31.2,40.5,31.4,40.5,31.5z"/>
<path fill="#CCCCCC" d="M40.5,29.8v0.4c0,0.2-0.1,0.3-0.3,0.3H16.5c-0.2,0-0.3-0.1-0.3-0.3v-0.4c0-0.2,0.1-0.3,0.3-0.3h23.7
	C40.4,29.5,40.5,29.7,40.5,29.8z"/>
<path fill="#CCCCCC" d="M40.5,38.6v0.4c0,0.2-0.1,0.3-0.3,0.3H16.5c-0.2,0-0.3-0.1-0.3-0.3v-0.4c0-0.2,0.1-0.3,0.3-0.3h23.7
	C40.4,38.3,40.5,38.5,40.5,38.6z"/>
<path fill="#CCCCCC" d="M40.5,37v0.4c0,0.2-0.1,0.3-0.3,0.3H16.5c-0.2,0-0.3-0.1-0.3-0.3v-0.4c0-0.2,0.1-0.3,0.3-0.3h23.7
	C40.4,36.7,40.5,36.8,40.5,37z"/>
<path fill="#CCCCCC" d="M40.5,35.3v0.4c0,0.2-0.1,0.3-0.3,0.3H16.5c-0.2,0-0.3-0.1-0.3-0.3v-0.4c0-0.2,0.1-0.3,0.3-0.3h23.7
	C40.4,35,40.5,35.1,40.5,35.3z"/>
<path fill="#CCCCCC" d="M40.5,40.4v0.4c0,0.2-0.1,0.3-0.3,0.3H16.5c-0.2,0-0.3-0.1-0.3-0.3v-0.4c0-0.2,0.1-0.3,0.3-0.3h23.7
	C40.4,40.1,40.5,40.2,40.5,40.4z"/>
</svg>
