<?xml version="1.0" standalone="no"?>
<!DOCTYPE svg PUBLIC "-//W3C//DTD SVG 20010904//EN"
 "http://www.w3.org/TR/2001/REC-SVG-20010904/DTD/svg10.dtd">
<svg version="1.0" xmlns="http://www.w3.org/2000/svg"
 width="100.000000pt" height="100.000000pt" viewBox="0 0 100.000000 100.000000"
 preserveAspectRatio="xMidYMid meet">
<g transform="translate(0.000000,100.000000) scale(0.100000,-0.100000)"
fill="#000000" stroke="none">
<path d="M122 637 c-62 -62 -112 -117 -112 -122 0 -15 213 -225 227 -225 14 0
63 50 63 65 0 6 -34 44 -75 85 l-75 75 75 75 c41 41 75 80 75 86 0 5 -15 24
-33 42 l-33 32 -112 -113z"/>
<path d="M717 712 c-15 -15 -27 -32 -27 -37 0 -5 34 -44 75 -85 l75 -75 -75
-75 c-41 -41 -75 -79 -75 -84 0 -14 51 -66 65 -66 13 0 225 212 225 225 0 14
-212 225 -226 225 -6 0 -22 -13 -37 -28z"/>
<path d="M505 550 l-69 -70 -23 22 -23 22 -45 -44 c-32 -31 -45 -52 -45 -72
l0 -28 200 0 200 0 0 58 c0 58 0 59 -61 120 -33 34 -61 62 -62 62 -2 0 -34
-31 -72 -70z"/>
</g>
</svg>
