<?xml version="1.0" encoding="utf-8"?>
<!DOCTYPE svg PUBLIC "-//W3C//DTD SVG 1.1//EN" "http://www.w3.org/Graphics/SVG/1.1/DTD/svg11.dtd">
<svg version="1.1" id="Layer_1" xmlns="http://www.w3.org/2000/svg" xmlns:xlink="http://www.w3.org/1999/xlink" x="0px" y="0px"
	 width="55px" height="55px" viewBox="0 0 55 55" style="enable-background:new 0 0 55 55;" xml:space="preserve">
<g>
	<path d="M43,18.5v19.286c0,1.594-0.638,3.171-1.77,4.302C40.099,43.221,38.665,44,37.071,44H17.786
		c-1.595,0-2.957-0.779-4.089-1.912C12.565,40.957,12,39.38,12,37.786V18.5c0-1.594,0.565-2.812,1.697-3.945
		C14.829,13.424,16.191,13,17.786,13h19.285c1.594,0,3.027,0.424,4.159,1.555C42.362,15.688,43,16.906,43,18.5z M38,29.429v-2.571
		C38,26.509,38,26,38,26s-1.224,0-1.571,0H30v-6.857C30,18.795,30,18,30,18s-0.938,0-1.286,0h-2.571C25.795,18,25,18,25,18
		s0,0.795,0,1.143V26h-8c0,0,0,0.509,0,0.857V31h8v7h5v-7h6.429C36.776,31,38,31,38,31S38,29.777,38,29.429z"/>
</g>
</svg>
