<?xml version="1.0" encoding="utf-8"?>
<!-- Generator: Adobe Illustrator 18.1.0, SVG Export Plug-In . SVG Version: 6.00 Build 0)  -->
<!DOCTYPE svg PUBLIC "-//W3C//DTD SVG 1.1//EN" "http://www.w3.org/Graphics/SVG/1.1/DTD/svg11.dtd">
<svg version="1.1" id="Layer_1" xmlns="http://www.w3.org/2000/svg" xmlns:xlink="http://www.w3.org/1999/xlink" x="0px" y="0px"
	 viewBox="0 0 55 55" enable-background="new 0 0 55 55" xml:space="preserve">
<circle fill="#2DA4A8" cx="27.5" cy="27.5" r="25.9"/>
<path fill="#F2F2F2" d="M40.8,12.6v4.9c0,0.5-0.4,1-1,1H14.1c-0.5,0-1-0.4-1-1v-4.9c0-0.5,0.4-1,1-1h25.7
	C40.3,11.7,40.8,12.1,40.8,12.6z"/>
<path fill="#CCCCCC" d="M39.1,16.6V17c0,0.2-0.1,0.3-0.3,0.3H15.1c-0.2,0-0.3-0.1-0.3-0.3v-0.4c0-0.2,0.1-0.3,0.3-0.3h23.7
	C39,16.3,39.1,16.4,39.1,16.6z"/>
<path fill="#CCCCCC" d="M39.1,14.9v0.4c0,0.2-0.1,0.3-0.3,0.3H15.1c-0.2,0-0.3-0.1-0.3-0.3v-0.4c0-0.2,0.1-0.3,0.3-0.3h23.7
	C39,14.6,39.1,14.8,39.1,14.9z"/>
<path fill="#CCCCCC" d="M39.1,13.2v0.4c0,0.2-0.1,0.3-0.3,0.3H15.1c-0.2,0-0.3-0.1-0.3-0.3v-0.4c0-0.2,0.1-0.3,0.3-0.3h23.7
	C39,12.9,39.1,13,39.1,13.2z"/>
<path fill="#F2F2F2" d="M40.8,21.2v4.9c0,0.5-0.4,1-1,1H14.1c-0.5,0-1-0.4-1-1v-4.9c0-0.5,0.4-1,1-1h25.7
	C40.3,20.2,40.8,20.6,40.8,21.2z"/>
<path fill="#CCCCCC" d="M39.1,25.1v0.4c0,0.2-0.1,0.3-0.3,0.3H15.1c-0.2,0-0.3-0.1-0.3-0.3v-0.4c0-0.2,0.1-0.3,0.3-0.3h23.7
	C39,24.8,39.1,24.9,39.1,25.1z"/>
<path fill="#CCCCCC" d="M39.1,23.4v0.4c0,0.2-0.1,0.3-0.3,0.3H15.1c-0.2,0-0.3-0.1-0.3-0.3v-0.4c0-0.2,0.1-0.3,0.3-0.3h23.7
	C39,23.1,39.1,23.3,39.1,23.4z"/>
<path fill="#CCCCCC" d="M39.1,21.7v0.4c0,0.2-0.1,0.3-0.3,0.3H15.1c-0.2,0-0.3-0.1-0.3-0.3v-0.4c0-0.2,0.1-0.3,0.3-0.3h23.7
	C39,21.4,39.1,21.6,39.1,21.7z"/>
<path fill="#F2F2F2" d="M40.8,29.6v4.9c0,0.5-0.4,1-1,1H14.1c-0.5,0-1-0.4-1-1v-4.9c0-0.5,0.4-1,1-1h25.7
	C40.4,28.6,40.8,29,40.8,29.6z"/>
<path fill="#CCCCCC" d="M39.1,33.5v0.4c0,0.2-0.1,0.3-0.3,0.3H15.1c-0.2,0-0.3-0.1-0.3-0.3v-0.4c0-0.2,0.1-0.3,0.3-0.3h23.7
	C39,33.2,39.1,33.3,39.1,33.5z"/>
<path fill="#CCCCCC" d="M39.1,31.8v0.4c0,0.2-0.1,0.3-0.3,0.3H15.1c-0.2,0-0.3-0.1-0.3-0.3v-0.4c0-0.2,0.1-0.3,0.3-0.3h23.7
	C39,31.5,39.1,31.7,39.1,31.8z"/>
<path fill="#CCCCCC" d="M39.1,30.1v0.4c0,0.2-0.1,0.3-0.3,0.3H15.1c-0.2,0-0.3-0.1-0.3-0.3v-0.4c0-0.2,0.1-0.3,0.3-0.3h23.7
	C39,29.8,39.1,30,39.1,30.1z"/>
<path fill="#F2F2F2" d="M40.8,38.7v4.9c0,0.5-0.4,1-1,1H14.2c-0.5,0-1-0.4-1-1v-4.9c0-0.5,0.4-1,1-1h25.7
	C40.4,37.7,40.8,38.2,40.8,38.7z"/>
<path fill="#CCCCCC" d="M39.2,42.7v0.4c0,0.2-0.1,0.3-0.3,0.3H15.1c-0.2,0-0.3-0.1-0.3-0.3v-0.4c0-0.2,0.1-0.3,0.3-0.3h23.7
	C39,42.4,39.2,42.5,39.2,42.7z"/>
<path fill="#CCCCCC" d="M39.2,41v0.4c0,0.2-0.1,0.3-0.3,0.3H15.1c-0.2,0-0.3-0.1-0.3-0.3V41c0-0.2,0.1-0.3,0.3-0.3h23.7
	C39,40.7,39.2,40.8,39.2,41z"/>
<path fill="#CCCCCC" d="M39.2,39.3v0.4c0,0.2-0.1,0.3-0.3,0.3H15.1c-0.2,0-0.3-0.1-0.3-0.3v-0.4c0-0.2,0.1-0.3,0.3-0.3h23.7
	C39,39,39.2,39.1,39.2,39.3z"/>
</svg>
